# xmcd CD database file
# Copyright (C) 1996 Ti Kan
#
# Track frame offsets:
#	150
#	7027
#	23107
#	46442
#	62315
#	85912
#	104096
#	124907
#	127981
#	145669
#	168786
#	197360
#	228964
#	243424
# Disc length: 3860 seconds
#
# Revision: 1
# Processed by: cddbd v1.4PL0 Copyright (c) Steve Scherf et al.
# Submitted via: CDCOPY 4.744
#
DISCID=af0f120e
DTITLE=Flaming Bess - Fata Morgana
DYEAR=1900
DGENRE=
TTITLE0=Intro
TTITLE1=Arkana (Kapitel III)
TTITLE2=Veligandu (Power Song)
TTITLE3=Die Reise
TTITLE4=Hoffnung (Hope Song)
TTITLE5=Afrikanische Träume
TTITLE6=Dau
TTITLE7=Visionen
TTITLE8=Regenkind
TTITLE9=Erbarmen
TTITLE10=Gedankenspiele
TTITLE11=Fata Morgana
TTITLE12=Für Mau-Ri-Tse
TTITLE13=Rainchild (Hopeful Radio Edit)
EXTD=
EXTT0=
EXTT1=
EXTT2=
EXTT3=
EXTT4=
EXTT5=
EXTT6=
EXTT7=
EXTT8=
EXTT9=
EXTT10=
EXTT11=
EXTT12=
EXTT13=
PLAYORDER=
